<?xml version="1.0" encoding="UTF-8"?>
<svg width="40px" height="40px" viewBox="0 0 40 40" version="1.1" xmlns="http://www.w3.org/2000/svg" xmlns:xlink="http://www.w3.org/1999/xlink">
    <!-- Generator: Sketch 63.1 (92452) - https://sketch.com -->
    <title>Icons / search@3x</title>
    <desc>Created with Sketch.</desc>
    <g id="Crypto-Buddies" stroke="none" stroke-width="1" fill="none" fill-rule="evenodd">
        <g id="Crypto-Buddies-/-Landing-page" transform="translate(-80.000000, -328.000000)" fill="#1E252C" fill-rule="nonzero">
            <g id="Icons-/-Search" transform="translate(76.000000, 324.000000)">
                <path d="M20.3076923,4 C29.3141821,4 36.6153846,11.3012025 36.6153846,20.3076923 C36.6153846,24.2572326 35.2113546,27.8788442 32.8751883,30.7006334 L43.549395,41.3736819 C44.1502017,41.9744885 44.1502017,42.9485884 43.549395,43.549395 C42.9485884,44.1502017 41.9744885,44.1502017 41.3736819,43.549395 L30.7006334,32.8751883 C27.8788442,35.2113546 24.2572326,36.6153846 20.3076923,36.6153846 C11.3012025,36.6153846 4,29.3141821 4,20.3076923 C4,11.3012025 11.3012025,4 20.3076923,4 Z M20.3076923,7.07692308 C13.0005402,7.07692308 7.07692308,13.0005402 7.07692308,20.3076923 C7.07692308,27.6148444 13.0005402,33.5384615 20.3076923,33.5384615 C27.6148444,33.5384615 33.5384615,27.6148444 33.5384615,20.3076923 C33.5384615,13.0005402 27.6148444,7.07692308 20.3076923,7.07692308 Z" id="Combined-Shape"></path>
            </g>
        </g>
    </g>
</svg>